<svg width="300" height="300" viewBox="0 0 300 300" fill="none" xmlns="http://www.w3.org/2000/svg">
<path d="M148.987 146.962C159.615 146.962 168.819 143.022 176.34 135.248C183.86 127.476 187.672 117.966 187.672 106.98C187.672 95.9969 183.86 86.486 176.338 78.711C168.817 70.9399 159.614 67 148.987 67C138.357 67 129.155 70.9399 121.635 78.7123C114.115 86.4847 110.301 95.996 110.301 106.98C110.301 117.966 114.115 127.478 121.636 135.25C129.158 143.021 138.36 146.962 148.987 146.962ZM216.675 194.645C216.458 191.411 216.02 187.882 215.374 184.156C214.722 180.402 213.883 176.854 212.878 173.61C211.84 170.258 210.428 166.947 208.684 163.775C206.872 160.482 204.745 157.615 202.358 155.255C199.862 152.787 196.806 150.802 193.272 149.354C189.75 147.915 185.847 147.185 181.672 147.185C180.033 147.185 178.447 147.881 175.385 149.941C173.208 151.406 171.025 152.861 168.835 154.305C166.731 155.691 163.881 156.989 160.36 158.164C156.926 159.313 153.438 159.896 149.996 159.896C146.554 159.896 143.068 159.313 139.63 158.164C136.113 156.99 133.263 155.692 131.161 154.307C128.724 152.697 126.518 151.228 124.605 149.94C121.547 147.879 119.96 147.184 118.32 147.184C114.144 147.184 110.243 147.915 106.722 149.356C103.19 150.801 100.133 152.786 97.6346 155.257C95.2489 157.617 93.1205 160.483 91.3117 163.775C89.5682 166.947 88.1566 170.256 87.1173 173.611C86.1135 176.855 85.2743 180.402 84.6225 184.156C83.9766 187.877 83.538 191.407 83.3209 194.649C83.105 197.911 82.998 201.181 83 204.451C83 213.116 85.6652 220.131 90.9209 225.305C96.1116 230.41 102.98 233 111.332 233H188.668C197.02 233 203.886 230.411 209.078 225.305C214.335 220.135 217 213.119 217 204.45C216.999 201.105 216.89 197.806 216.675 194.645Z" fill="black"/>
</svg>
